<svg width="59" height="59" viewBox="0 0 59 59" fill="none" xmlns="http://www.w3.org/2000/svg">
<path d="M5.47575 29.4321L30.3491 37.2608C30.7198 37.3769 31.1079 37.3805 31.4672 37.2842C31.8284 37.1875 32.1608 36.9907 32.4238 36.7049L50.0504 17.4884C50.5115 16.9839 50.685 16.279 50.5079 15.6183C50.3309 14.9576 49.8283 14.4339 49.1772 14.2294L24.3032 6.39873C23.562 6.16671 22.7544 6.3831 22.2285 6.95466L4.60252 26.1732C4.14088 26.6758 3.96745 27.3807 4.14448 28.0413C4.32142 28.702 4.82415 29.2258 5.47575 29.4321Z" fill="#FF6A95"/>
<path d="M53.3183 29.683L46.3153 27.4785L35.3726 39.4091C34.5946 40.2532 33.6044 40.8539 32.5032 41.149C31.4021 41.444 30.2442 41.4189 29.1546 41.0772L13.7063 36.2161L8.74377 41.6268C8.28265 42.1313 8.10922 42.8362 8.28625 43.4968C8.46327 44.1575 8.96592 44.6813 9.617 44.8857L34.4909 52.7164C34.8616 52.8325 35.2478 52.8366 35.609 52.7398C35.9683 52.6436 36.3026 52.4464 36.5656 52.1605L54.1916 32.942C54.6532 32.4394 54.8266 31.7345 54.6496 31.0738C54.4727 30.4131 53.9699 29.8894 53.3183 29.683Z" fill="#EE4878"/>
</svg>
